<?xml version="1.0" standalone="no"?>
<!DOCTYPE svg PUBLIC "-//W3C//DTD SVG 20010904//EN"
 "http://www.w3.org/TR/2001/REC-SVG-20010904/DTD/svg10.dtd">
<svg version="1.0" xmlns="http://www.w3.org/2000/svg"
 width="500.000000pt" height="500.000000pt" viewBox="0 0 500.000000 500.000000"
 preserveAspectRatio="xMidYMid meet">
<metadata>
Created by potrace 1.14, written by Peter Selinger 2001-2017
</metadata>
<g transform="translate(0.000000,500.000000) scale(0.100000,-0.100000)"
fill="#000000" stroke="none">
<path d="M1910 4459 c-199 -23 -261 -38 -363 -88 -126 -61 -237 -171 -300
-296 -39 -78 -97 -205 -97 -213 0 -4 -13 -32 -29 -63 -49 -95 -63 -202 -59
-458 l3 -206 30 -47 c17 -26 50 -61 73 -78 54 -39 127 -80 142 -80 7 0 27 -7
45 -16 50 -23 347 -16 425 10 97 33 125 63 166 179 34 95 115 145 267 167 121
17 150 10 192 -48 35 -47 44 -93 27 -130 -63 -129 -146 -242 -217 -296 -35
-27 -167 -192 -228 -286 -35 -54 -44 -81 -88 -265 -20 -82 -21 -109 -17 -290
5 -184 7 -203 28 -240 56 -99 105 -140 223 -183 68 -25 85 -27 277 -30 181 -3
213 -1 275 16 134 39 210 77 269 138 53 54 80 123 112 284 8 44 67 168 92 197
10 12 52 43 93 69 139 89 229 172 290 266 27 42 49 79 49 82 0 2 21 40 47 83
64 107 81 143 109 232 22 70 24 91 24 294 0 231 -2 243 -56 407 -14 41 -31 86
-38 100 -8 14 -23 44 -35 68 -11 23 -31 60 -43 83 -28 51 -199 227 -258 265
-25 16 -52 35 -60 41 -8 7 -34 25 -56 40 -23 16 -68 46 -100 67 -33 22 -86 54
-119 71 -33 18 -69 37 -80 42 -79 43 -209 90 -308 112 -53 12 -603 12 -707 0z"/>
<path d="M2315 1393 c-5 -5 -28 -15 -50 -22 -81 -27 -169 -76 -214 -121 -81
-79 -111 -176 -110 -355 0 -78 4 -97 28 -145 28 -57 91 -114 161 -146 19 -9
49 -23 65 -32 23 -12 72 -17 210 -20 165 -4 184 -2 245 18 87 29 152 78 198
148 l37 57 3 169 c2 115 0 178 -8 195 -7 14 -19 41 -27 58 -19 38 -125 115
-228 164 -65 32 -78 34 -185 37 -63 2 -119 -1 -125 -5z"/>
</g>
</svg>
